<svg xmlns="http://www.w3.org/2000/svg" viewBox="0 0 292.65 226.04"><defs><style>.cls-1{fill:#ebd7a1;}.cls-2{fill:#dba01b;}.cls-3{fill:#dba01c;}.cls-4{fill:#dba01e;}.cls-5{fill:#dba01d;}.cls-6{fill:#dca120;}</style></defs><g id="Capa_2" data-name="Capa 2"><g id="Capa_1-2" data-name="Capa 1"><path class="cls-1" d="M156.39,9.53c1.66-5,5.66-6.3,10.06-6.9,5.38-.75,10.61.44,15.82,1.5a115.43,115.43,0,0,1,43.19,18.35,37.43,37.43,0,0,1,3.68,3c3.15,2.83,5.49,6.13,5.84,10.61,2.89.43,5.77.8,8.63,1.28,3.73.61,7.45,1.28,11.17,2a5.94,5.94,0,0,1,4.92,4.56c.12.44.31.87.39,1.31.63,3.92,2.81,6.95,5.49,9.72a54.58,54.58,0,0,1,4.82,5.39c3.38,4.55,2.38,9.4-2.75,11.82a65.85,65.85,0,0,1-10.52,3.38c-3.44,1-6.95,1.69-10.41,2.57-1.07.27-2.14.68-2.44,2.09a26.43,26.43,0,0,1,4.5.52,45,45,0,0,1,7.36,2.6A27.89,27.89,0,0,0,266,85.82c5,.46,9.68,2.05,13.41,5.64A9.25,9.25,0,0,1,281.33,94c3.19,6.57,6.43,13.12,9.38,19.8a21.13,21.13,0,0,1,1.92,9.59c-.18,3.79-3.19,5.74-6.63,4.13a39.79,39.79,0,0,1-5.43-3.5c-1.09-.75-2.06-1.69-3.18-2.4-2.81-1.78-5.47-.79-6.5,2.34a2.72,2.72,0,0,0-.13.49c-.71,4.51-3.83,6.79-7.75,8.28-1.67.63-3.39,1.13-5.08,1.68a5.77,5.77,0,0,0-.82.31c-1.59.83-1.74,2.31-.25,3.3,1.83,1.22,3.7,2.4,5.61,3.49a36.05,36.05,0,0,1,13.55,13A29.84,29.84,0,0,1,280.63,171c-.14,4.18-1.53,7.81-5,10.39a9.65,9.65,0,0,1-8.94,1.6c-.54,1.68-2,2-3.5,2.26-.45.09-.89.19-1.35.26a5.57,5.57,0,0,0-4.52,3.64,13.59,13.59,0,0,1-2.48,4.26c-4.18,4.26-9.35,4.73-14.79,3.16a21.67,21.67,0,0,1-9.52-5.72,27.7,27.7,0,0,0-3.48-3c-1.14-.81-1.76-.44-2.14.92a16.66,16.66,0,0,1-1.4,4.19c-1.49,2.48-4,3.42-6.8,3.49-3.29.09-5.34,1.75-6.51,4.72a26.75,26.75,0,0,1-1.86,4.07c-1.22,2-3.06,3.55-6.09,2.36-2-.8-3.88,0-5.45,1.25-1.14.95-2.08,2.14-3.16,3.18a39.76,39.76,0,0,1-4.76,4.34c-4,2.7-8.12,5.2-12.23,7.71a8.57,8.57,0,0,1-7.9.69,10.26,10.26,0,0,0-7.88.16,16.8,16.8,0,0,1-9.57.81,6.06,6.06,0,0,1-4.79-3.92c-.5-1.23-.94-2.49-1.42-3.73a5.7,5.7,0,0,0-5.2-3.84c-.74-.08-1.49-.17-2.23-.29a6.54,6.54,0,0,1-5.85-6.68,19,19,0,0,0-1.72-7.82,39.54,39.54,0,0,1-3.18-20.23,15.52,15.52,0,0,0-.2-2.87l-.44,0c-.42.84-.88,1.66-1.26,2.52-2.76,6.23-5.49,12.47-8.26,18.69a24.12,24.12,0,0,1-1.79,3.27,4.13,4.13,0,0,1-3.49,2.13c-2.54,0-3.91,1.34-4.8,3.45a13.5,13.5,0,0,1-7.11,7.2c-2.75,1.25-5.64,2.2-8.5,3.18a13.11,13.11,0,0,1-3.07.48A6.9,6.9,0,0,1,82.36,215c-.38-.38-.79-.74-1.14-1.15-2.25-2.63-5-3.29-8.34-2.49a25.83,25.83,0,0,1-4.55.64,4.79,4.79,0,0,1-4.61-2.45A27.66,27.66,0,0,1,62,206.09a7.54,7.54,0,0,0-6.12-4.91,20.9,20.9,0,0,1-9.14-4c-4.87-3.43-6.87-8.2-6.51-14a23.71,23.71,0,0,1,7.95-16.42c.7-.65,1.36-1.35,2-2A10.28,10.28,0,0,0,53,154.6,22.57,22.57,0,0,1,53.21,142c-1.06.76-1.81,1.32-2.58,1.85a42.48,42.48,0,0,1-20.4,7.75,18.48,18.48,0,0,1-5.45-.3c-4.84-1-7.5-4.46-7.62-9.42-.12-4.56,1.47-8.65,3.51-12.59a42.49,42.49,0,0,1,9-11.6A30.75,30.75,0,0,0,36.08,110c1.07-2,1.63-4.12.69-6.34a2.3,2.3,0,0,0-1.14-1.14c-6.5-2.55-13-5-19.52-7.55a7.51,7.51,0,0,0-6.51.22,14.65,14.65,0,0,1-3.14,1.17A5.06,5.06,0,0,1,.05,91.64,8,8,0,0,1,1.3,86.27c5.2-7.83,12.14-12.9,21.82-13.5,1.95-.12,3.9-.27,5.84-.47,1.64-.17,1.93-.64,1.91-2.28-.07-4.08.54-8,4.22-10.5a18.92,18.92,0,0,1,11.69-3.27c3.41.14,3.78-.11,3.79-3.58a38,38,0,0,1,.22-4c.29-2.53,1.19-4.88,3.38-6.28,3.43-2.21,4.61-5.48,5.11-9.25.88-6.53,3.9-11.68,9.84-14.88a26.26,26.26,0,0,1,9.61-2.9,37.72,37.72,0,0,1,15.81,1.14c.32.1.65.14,1,.21,4,.87,5.3-.11,5.46-4.21a9.51,9.51,0,0,1,2.47-6A17.59,17.59,0,0,1,119,.08a76.67,76.67,0,0,1,11,1.81,121,121,0,0,0,17.22,2.72,20.3,20.3,0,0,1,3.18.62A9.09,9.09,0,0,1,156.39,9.53Zm-53,81.57a30.87,30.87,0,0,0-3.35-.93,1.68,1.68,0,0,0-1.46.56A1.84,1.84,0,0,0,99,92.27a4.16,4.16,0,0,0,1.58,1.19c2.42,1.09,4.86,2.15,7.32,3.15,4.92,2,10.11,3.49,13.92,7.54a3,3,0,0,0,1.05.66,7.06,7.06,0,0,0,1.23.25l.3-.4c-.91-1-1.74-2.15-2.74-3.09A38.08,38.08,0,0,1,110.43,81a42,42,0,0,0-1-4.47c-.26-.81-1-1.75-1.92-1.31-.43.2-.68,1.39-.57,2.05.38,2.25,1,4.46,1.43,6.7a18.26,18.26,0,0,1,.17,2.46l-.49.11c-.65-1.47-1.33-2.92-2-4.4a22.51,22.51,0,0,0-6.19-8.49c-.36-.31-1-.28-1.53-.41a4.93,4.93,0,0,0,.31,1.48c.95,1.65,2.09,3.21,3,4.89,1.47,2.75,2.8,5.57,4.18,8.37a3.35,3.35,0,0,1,.14.74,5.62,5.62,0,0,1-1.64-1.2c-2-1.74-3.85-3.53-5.89-5.16-.74-.59-2-1.41-2.78-.37s.28,1.91,1,2.56c2.26,2.2,4.62,4.3,6.94,6.43ZM69.8,159.65A3,3,0,0,1,72.94,161a9.26,9.26,0,0,1,1.28,2.67,8.43,8.43,0,0,1-.81,5.8c-.76,1.66-.56,2.34.89,3.34a3.77,3.77,0,0,1,1,1.2,2.36,2.36,0,0,0,2.37,1.28,4.36,4.36,0,0,1,2.18.24,2.83,2.83,0,0,0,3.81-.65,2.77,2.77,0,0,1,3.59-.64c3.58,1.72,6.84,1,9.87-1.45a17.74,17.74,0,0,1,3.2-2.15,5.7,5.7,0,0,1,2.48-.38,45.65,45.65,0,0,0,4.8.24c7.76-.72,14.65-7.63,15.1-15.35.21-3.62,1-6.57,4.61-8.23a4.38,4.38,0,0,0,2.32-3.54,33.52,33.52,0,0,0,.3-5.83c-.2-3.72-.13-7.33,2.27-10.47a3.45,3.45,0,0,0,.32-.67,4.15,4.15,0,0,0-.16-4,10.74,10.74,0,0,0-5.34-4.68,7.76,7.76,0,0,0-2.06-.09,21.15,21.15,0,0,1-3-.41c-.75-.19-1.41-.75-2.16-.91a24.77,24.77,0,0,0-9.4-.25c-8.58,1.44-17.2,2.4-25.87,3-5.18.37-9.92,2.07-13.4,6.31a14.36,14.36,0,0,1-6.46,4.53,11.05,11.05,0,0,0-1.8.87,5.08,5.08,0,0,0-2.82,6c.17.9.32,1.8.54,2.69a4.65,4.65,0,0,1-1.25,4.8,21.77,21.77,0,0,0-1.84,2.21,3.84,3.84,0,0,0-.68,3.3,11.92,11.92,0,0,0,3.34,5.89A11.38,11.38,0,0,0,69.8,159.65Zm76.29-45.45c-1.81-.09-3.68.21-4.32,2.65a.7.7,0,0,1-.28.4c-2.21,1.43-3.11,3.73-3.94,6a13.85,13.85,0,0,1-3,5.09,4.4,4.4,0,0,0-1,2.6c-.15,2.19,0,4.39-.13,6.59a31.43,31.43,0,0,1-2.09,10.6,35.1,35.1,0,0,0-1.47,4.63c-.89,3.37-.89,6.66,1,9.75,1.56,2.53,2.91,3,5.63,1.8.31-.14.62-.25.93-.39a3.19,3.19,0,0,1,3.79.67c1,1,1.88,2,2.83,3a61.47,61.47,0,0,0,4.55,4.58,4.17,4.17,0,0,0,4.93.19c2.22-1.21,3-3.11,2.58-6.08-.2-1.48-.33-3-.44-4.46a1.48,1.48,0,0,1,1.41-1.73,2.24,2.24,0,0,1,1.63,1,12.49,12.49,0,0,1,1,2.66c.63,1.84,1.12,3.75,1.89,5.53a5.7,5.7,0,0,0,4.5,3.4c3.27.53,6-.35,7.94-3.21,1.19-1.8,2.22-3.72,3.42-5.52,1.61-2.43,3.74-3.65,6.8-2.91a3.36,3.36,0,0,0,2.55-.52,5,5,0,0,1,4.42-1.08,12.68,12.68,0,0,0,1.75.07,1.58,1.58,0,0,0,1.88-1.53,1.93,1.93,0,0,1,1.83-1.75c.81-.13,1.65-.14,2.47-.25a10.25,10.25,0,0,0,2.43-.47,2.41,2.41,0,0,0,.77-4.18c-1.63-1.5-1.6-2.11-.14-3.81a5.37,5.37,0,0,0,1.4-2.53,9.92,9.92,0,0,0-1.65-7.26,24.36,24.36,0,0,1-4.21-9,6.91,6.91,0,0,0-5.49-5.39,12.13,12.13,0,0,1-6.53-3.87,6.21,6.21,0,0,0-3.55-1.91c-3.17-.69-6.29-1.57-9.44-2.33a14.89,14.89,0,0,0-3.3-.5c-2.46,0-4.61-.47-6.4-2.43-1.57-1.71-3.73-1.4-5.19.44-.54.69-1,1.44-1.54,2.13-1.22,1.56-2.32,1.84-4,.82A11.65,11.65,0,0,0,146.09,114.2Zm71.8,59.15c.41-.24.73-.44,1.05-.61,1.68-.92,2-2.28.78-3.75a6.68,6.68,0,0,0-2.15-1.65,18.09,18.09,0,0,0-3.64-1.28,14,14,0,0,1-6.47-3.23c-2.19-2-4.71-2.34-6.94-.72a11.47,11.47,0,0,1-3.91,1.73c-2.62.65-5.29,1.09-8,1.55a7.33,7.33,0,0,1-2.6,0,4.72,4.72,0,0,0-5.24,2.29c-.88,1.34-1.37,2.94-2.23,4.3a17.49,17.49,0,0,1-3.14,4.11c-3.33,2.84-7.36,3.19-11.55,2.73-1.47-.16-2.48-.58-2.82-2.23-.42-2-1-2.23-2.9-1.26a12.82,12.82,0,0,1-9.07,1.16,12,12,0,0,1-7.62-5.05c-2.06-3.07-5.54-3.6-8.45-5.16a1.06,1.06,0,0,0-.85-.06c-.53.29-1.3.58-1.45,1.05-.73,2.16-1.37,4.37-.67,6.7.55,1.83,1.09,3.66,1.53,5.51a2.63,2.63,0,0,1-.17,1.89c-1,1.54-.62,2.83.4,4.09a22.19,22.19,0,0,0,1.57,1.78,8.42,8.42,0,0,1,2.55,4.9c.34,2.42.38,4.89.79,7.3a19.75,19.75,0,0,0,1.57,5.05,3.28,3.28,0,0,0,3.69,2,1.8,1.8,0,0,1,1.44.7,20.88,20.88,0,0,1,1.5,2.85,23.61,23.61,0,0,0,1.42,2.9c1.37,2,2.87,2.32,5,1.11a1.84,1.84,0,0,1,2.49.26c.78.81,1.42,1.75,2.25,2.5a23.35,23.35,0,0,0,3.24,2.45,2.49,2.49,0,0,0,3.27-.55c1.19-1.15,2-1.11,3.23,0,3.75,3.39,10.2,1.81,11.72-3a4.29,4.29,0,0,1,3.79-3.27c.62-.08,1.23-.19,1.85-.3a4.89,4.89,0,0,0,3.81-2.31,12.87,12.87,0,0,1,5.44-5.49,2.4,2.4,0,0,0,1.16-2.68c-.1-.78-.22-1.56-.34-2.34-.29-2,.72-2.82,2.66-2.1.51.19,1,.47,1.49.63,2,.62,3.48-.53,3.3-2.57a10.93,10.93,0,0,0-.59-2.28c-.26-.79-.66-1.54-.86-2.34-.38-1.47.52-2.3,2-1.82a19.47,19.47,0,0,1,2.36,1.11c1.05.51,2.06,1.09,3.13,1.56a4.84,4.84,0,0,0,5-.36c1.3-.89,2.54-1.87,3.79-2.84a2.31,2.31,0,0,0,1-2.29,1.58,1.58,0,0,1,1.27-1.86c1-.34,2.08-.58,3.1-.92a2.86,2.86,0,0,0,1.77-4.37,12.88,12.88,0,0,0-1.57-2.24C220,175.57,219,174.55,217.89,173.35Zm15.7,5.85.52,0a4.14,4.14,0,0,1,.27,1.09,15.8,15.8,0,0,1-.39,2.83,3.87,3.87,0,0,0,1.59,4.59,16.14,16.14,0,0,0,2.69,1.57c3.23,1.39,6.58,2.16,10.07,1.15,2.68-.78,3.87-2.4,4.07-5.17.08-1,.31-2,.43-3.08s.66-1.35,1.62-1.27c1.29.11,2.57.17,3.86.26,2.78.17,5-.46,5.81-3.59.38-1.4,1.25-1.67,2.65-1.31.76.2,1.5.48,2.24.75a2.58,2.58,0,0,0,3.15-.68,6.66,6.66,0,0,0,1.71-4.31c.15-3.55-1.2-6.66-2.74-9.74a7.45,7.45,0,0,1-.92-2.8,7.41,7.41,0,0,0-2-4.59,13,13,0,0,1-1.4-1.91c-1.8-3.16-4-5.59-7.77-6.71a13.9,13.9,0,0,0-9.23.22,6.49,6.49,0,0,1-.81.19c.47-1.95.24-3-.84-4s-2.46-.83-3.76-.41c-.87.28-1.68.72-2.53,1a16.9,16.9,0,0,1-3.19,1,2.24,2.24,0,0,1-1.87-.6c-.83-1.46-2.11-1.47-3.36-1.16-2.93.74-5-.37-6.68-2.66-.49-.67-1.05-1.3-1.53-2A8.81,8.81,0,0,0,220,134.6a31.09,31.09,0,0,0-3.9-.82c-4-.51-7.73-1.59-10.85-4.3a19.69,19.69,0,0,0-3-2,5.41,5.41,0,0,0-1.6-.32c-.09.58-.39,1.22-.23,1.72a19.12,19.12,0,0,0,1.55,3.38c1.49,2.56,3,5.07,4.59,7.59a8.44,8.44,0,0,1,1,5.77c-.11.87-.25,1.73-.38,2.59a2.85,2.85,0,0,0,1.1,2.87c1.68,1.38,1.73,2,.38,3.7-.62.78-1.33,1.49-1.93,2.29-1.38,1.83-.94,3.1,1.26,3.67a9.45,9.45,0,0,0,1.59.28,9.06,9.06,0,0,1,5.85,2.41,5.83,5.83,0,0,0,3.25,1.3c3.79.36,5.15,1.33,6.22,5a7.34,7.34,0,0,0,2.49,4.06,3.32,3.32,0,0,1,1,4.14,18.55,18.55,0,0,0-.75,2.25A3.21,3.21,0,0,0,230,183.9c1.43.32,2.39-.53,2.89-2.53C233.09,180.63,233.36,179.92,233.59,179.2Zm-21-79c-2.12,0-4.25-.14-6.36,0-4.72.37-9.43.93-14.15,1.31a65.25,65.25,0,0,0-19.19,4.12,41.13,41.13,0,0,0-7,3.56c-1.53,1-1.25,2.11.51,2.55a35.5,35.5,0,0,0,5.76,1,33.62,33.62,0,0,1,13.44,3.79c3.51,1.89,7.27,3.29,10.87,5a9.83,9.83,0,0,1,2.84,2.07c.94,1,1.8,1.9,3.29,2a4.68,4.68,0,0,1,1.68.73,36,36,0,0,0,4.26,2.32c3.31,1.23,6.66,2.39,10.06,3.31,3.22.88,6.05,2.16,8.22,4.83a11.76,11.76,0,0,0,3.26,2.63,4.6,4.6,0,0,0,4.9-.78c1.13-1.32.63-2.74,0-4.1a9,9,0,0,0-1-1.84c-1.25-1.61-2.49-3.24-3.86-4.74s-2.82-2.7-4.19-4.09c-.34-.35-.75-1-.63-1.31a1.54,1.54,0,0,1,1.29-.74,6.63,6.63,0,0,1,2.93,1,14.81,14.81,0,0,1,2.71,3.23c1.17,1.72,2.07,3.62,3.31,5.28a5.11,5.11,0,0,1,1.26,3.89,1.76,1.76,0,0,0,.94,2.1c1,.43,1.59-.09,2.33-.65a2.82,2.82,0,0,1,2.05-.7,4.49,4.49,0,0,0,5.33-1.59,2.2,2.2,0,0,1,.56-.49,14,14,0,0,0,4.68-5.24c1.16-2,3.38-3.55,6-2.74a29.72,29.72,0,0,0,4.38,1c2.39.37,3.44-.77,3.12-3.14-.35-2.65-1.74-4.82-3-7.07-3.47-6.24-8.51-10.35-15.65-11.67-3.67-.68-7.35-1.4-11-2.16C228.66,101.26,220.74,99.8,212.61,100.17ZM146.26,49.58l.63,0a7.83,7.83,0,0,0,.57-1.39c.2-.94.29-1.89.44-2.84s.14-1.93,1.26-2,1.17,1.07,1.36,1.77c.71,2.69,1.18,5.45,2,8.12A54.13,54.13,0,0,0,155,59.72c.2.46,1,.67,1.54,1a4.28,4.28,0,0,0,.42-1.57c-.44-3.12-1-6.23-1.45-9.35a8.74,8.74,0,0,1,.06-1.61c.35.36.68.75,1.06,1.07a6.94,6.94,0,0,0,1,.58c.14-.31.43-.65.39-.94a5.18,5.18,0,0,0-.51-1.51c-1.1-2.42-2.37-4.77-3.29-7.26a10.58,10.58,0,0,1-.58-4.4A47.3,47.3,0,0,0,153,23.43a14.05,14.05,0,0,1-.17-4.09,19.35,19.35,0,0,0-.94-7.87c-.92-2.93-3.36-3.92-6-2.33A5.32,5.32,0,0,1,141,9.5a11,11,0,0,1-2-.93,7.24,7.24,0,0,0-5.77-.8,8.57,8.57,0,0,1-6.17-.68c-1.76-.87-3.53-1.7-5.31-2.51a10.7,10.7,0,0,0-9.84.47c-3.54,1.84-4.57,3.87-4.09,7.81a9.41,9.41,0,0,1-.08,3.09,10.66,10.66,0,0,0,1,7.63c1.69,3.1,3.58,6.09,5.33,9.15a22.89,22.89,0,0,1,1.79,3.82,1.63,1.63,0,0,1-1.37,2.31,2.61,2.61,0,0,0-2,1.83c-1,2.57-1.06,2.61-3.72,2.14a3.49,3.49,0,0,0-4,1.69,3.69,3.69,0,0,0,.28,4.52c2.19,2.34,4.41,4.66,6.69,6.91a2,2,0,0,0,1.72.46,2.11,2.11,0,0,0,.93-1.56,25,25,0,0,0-.09-3.23c0-.72,0-1.44,0-2.16l.34-.15A14.43,14.43,0,0,1,116,50.67c2,2.55,3.93,5.18,6,7.66A9.86,9.86,0,0,0,125,60.61c1.46.76,2.47.1,2.29-1.51a22.16,22.16,0,0,0-1.18-4.8,39.26,39.26,0,0,0-1.85-3.81,8.62,8.62,0,0,1-1-5.07,5.73,5.73,0,0,1,.81-1.57c.5.28,1.19.44,1.47.87.95,1.41,1.77,2.91,2.62,4.39s1.79,3.29,2.8,4.86,1.71,1.56,2.88.16c.66-.79,1.26-1.65,2-2.41s1.13-.6,1.45.33c.48,1.42,1,2.84,1.52,4.23A7.64,7.64,0,0,0,140,58.55a2.38,2.38,0,0,0,1.83.87c.49-.13.91-1.06,1.05-1.71a6,6,0,0,0-.09-2.22c-.3-1.77-.71-3.51-1-5.27-.55-3.28-.74-6.54.56-9.71a8.18,8.18,0,0,1,.95-1.42l.54.08Q145.05,44.38,146.26,49.58ZM85,33.82a25.06,25.06,0,0,0-4.2.46c-5.36,1.33-10.68,2.78-16,4.26a4.35,4.35,0,0,0-3.34,3.67,11.21,11.21,0,0,1-3.26,6.44,5.13,5.13,0,0,0-1.4,4.6,15,15,0,0,0,.6,2.92q1.64,4.44,3.44,8.83c1.16,2.79,2.69,5.42,2.74,8.6a3.68,3.68,0,0,0,1.44,2.19,7.46,7.46,0,0,0,2.66,1.32,12.4,12.4,0,0,1,6.17,4.24c.74.9,1.59,1.71,2.33,2.61,4.73,5.75,11.32,7,18.21,7.55.89.07,2-.08,2.24-1.17s-.7-1.57-1.47-2.06L95,88.15c-2.35-1.32-4.69-2.67-7.08-3.94a19,19,0,0,1-8.4-8.59c-1.21-2.47-1.07-3.71,1.3-4.9,1.6-.79,1.75-2.19,1.12-3.85a19.07,19.07,0,0,1-.9-4.19,1.4,1.4,0,0,1,.62-1.2,2,2,0,0,1,1.59.2,20.65,20.65,0,0,1,1.49,1.82c.6.58,1.31,1.45,2,1.48a4.86,4.86,0,0,1,4,2.52c1.17,1.69,1.47,1.64,2.71.09.18-.23.54-.49.78-.45s.52.39.6.67c.15.55.14,1.15.28,1.71.28,1.18,1.1,1.42,2,.61,1.32-1.18,2-1.17,3,.3a4.32,4.32,0,0,0,3.39,1.75,16.75,16.75,0,0,1,4,1.15c1.15.46,2.15,1.29,3.31,1.71a3.09,3.09,0,0,0,2.46,0c1-.81,1.42-.36,2.15.29a14.38,14.38,0,0,0,9.71,3.94,1.62,1.62,0,0,0,1.56-2.55,8.66,8.66,0,0,0-1.48-2c-1.93-2-3.9-3.87-5.88-5.77-4.46-4.29-9-8.56-13.42-12.86a51.38,51.38,0,0,1-4.43-4.55c-1.52-1.9-1.37-3.31.13-5.14,2.38-2.91,1.1-8.23-2.36-9.73A35.87,35.87,0,0,0,85,33.82Zm84.87-9.18-.3.09c.55,1.94,1.09,3.89,1.67,5.83a27.79,27.79,0,0,1,1.2,3.9,5.1,5.1,0,0,0,1.89,3.62A4.19,4.19,0,0,1,176,41.31a34.86,34.86,0,0,0,.53,4.45c.23,1.28.93,1.64,2.06,1.14a1.68,1.68,0,0,1,2.09.46,8.94,8.94,0,0,0,6.75,2.69c.66,0,1.33,0,2,0,2.8,0,3.86.83,4.69,3.53.89,2.88,1.55,3.3,4.52,3,2.14-.26,2.47,0,2.54,2.19.06,1.73,1,2.34,2.55,1.58,1-.47,1.83-1.15,2.77-1.68,2.83-1.6,5.7-3,9.13-2.85a3,3,0,0,0,2.17-1.13c1-1.49,1.75-3.19,2.7-4.75,1.08-1.76,2.21-3.49,3.43-5.15s2.91-3.33,4.12-5.15a5.86,5.86,0,0,0,.09-6.82c-1.27-1.94-2.67-3.81-4.09-5.65a7.66,7.66,0,0,0-5.12-3,5.76,5.76,0,0,1-3.79-2.22,10.11,10.11,0,0,0-5.17-3.3c-1.43-.43-2.87-.86-4.32-1.21A16.24,16.24,0,0,1,198,13.57a6.71,6.71,0,0,0-2.24-1.31,18.06,18.06,0,0,0-9.1-.77,25.68,25.68,0,0,0-14.52,7.68A7,7,0,0,0,169.9,24.64ZM71.11,107.32l.19.78A11.11,11.11,0,0,1,69,109a31.87,31.87,0,0,0-11.09,4.32,7.51,7.51,0,0,1-4.3,1,17.92,17.92,0,0,0-4.21.17,6.81,6.81,0,0,1-4.47-.34,3.08,3.08,0,0,0-4.46,2c-.68,2-1,2.29-3.09,1.87a3.43,3.43,0,0,0-4,1.76,44.91,44.91,0,0,0-2.49,5A8.08,8.08,0,0,1,28.5,128a13,13,0,0,0-2.32,2.7c-1.15,1.71-2.07,3.58-3.27,5.25a10.58,10.58,0,0,0-2.07,6.16c-.05,3.1,1.28,4.31,4.36,4.12a6.39,6.39,0,0,0,1.23-.17c4-1,8.06-2,12.07-3,6.92-1.8,12.89-4.93,16.18-11.76A16,16,0,0,1,64.47,123c1.53-.52,3-1.23,4.51-1.81,1.69-.65,3.37-1.36,5.12-1.86a31.8,31.8,0,0,1,4.06-.64c7.11-1.06,14.23-2.06,21.32-3.19a41.12,41.12,0,0,0,7.13-1.7c2-.7,2.07-2.92.21-4a17.07,17.07,0,0,0-2.75-1.13c-1.28-.49-2.6-.9-3.83-1.49-1.94-.93-3.85-2-5.75-3-5.46-3-11.15-5.2-17.4-5.73a58.93,58.93,0,0,1-13.28-2.74,14.85,14.85,0,0,0-7.66-.24c-2.4.49-4.82,1-7.16,1.68a26.87,26.87,0,0,0-4.74,2.15,1.73,1.73,0,0,0-1,2.29,2.15,2.15,0,0,1-.69,2.64c-1.66,1.63-1.44,3,.45,4.41a5.4,5.4,0,0,1,1.56,1.86,1.92,1.92,0,0,0,2.3,1.19,20.87,20.87,0,0,1,3.34-.32,6.74,6.74,0,0,0,4.18-.91,2.49,2.49,0,0,1,1.3-.36,20.44,20.44,0,0,0,7.52-1.53,10.38,10.38,0,0,1,2.65-.65C67.62,107.62,69.37,107.49,71.11,107.32ZM45.69,184a7.68,7.68,0,0,0,.11,1.74,22.24,22.24,0,0,0,1.44,3.93,2.12,2.12,0,0,0,1.72.92c.51-.07,1-.82,1.34-1.39.43-.84.59-1.82,1-2.69a2,2,0,0,1,3.36-.65,5.6,5.6,0,0,1,1.15,1.9,18.49,18.49,0,0,1,.87,3.12A4.63,4.63,0,0,0,60,194.64c1.82.57,3.66,1.11,5.47,1.71a2.18,2.18,0,0,1,1.69,2.86c-.11.62-.29,1.22-.39,1.83-.44,2.53.28,3.46,2.84,3.43,1.87,0,3.74-.21,5.59-.42A5.17,5.17,0,0,1,81,207c.33.62.6,1.28,1,1.89.85,1.46,2.07,2,3.57,1.29a7.27,7.27,0,0,0,2.78-2.37A7.81,7.81,0,0,1,94.77,204a10.12,10.12,0,0,0,7.79-4.32,1.68,1.68,0,0,1,.24-.28c1.12-.91,2-2.3,3.67-2.13,1.88.2,3-.78,3.92-2.12a28.7,28.7,0,0,0,1.58-2.82c1.46-2.71,2.9-5.43,4.38-8.12,1.11-2,2.23-4,3.44-5.94a47,47,0,0,1,2.78-4c1.09-1.42,2.4-2.68,3.35-4.17a7.5,7.5,0,0,0,1-3.26c.12-1.36-.75-1.87-2-1.33a6.63,6.63,0,0,0-1.82,1.06c-1.35,1.17-2.59,2.46-3.95,3.62a14.74,14.74,0,0,1-2.72,1.93c-1.87,1-3.84,1.78-5.7,2.79s-3.39,1.56-5.44.9c-1.65-.53-2.24-.08-3.2,1.37a14.46,14.46,0,0,1-2.1,2.62c-2,1.83-3.8,2-6.13.61-.54-.31-1.06-.64-1.61-1-2.82-1.55-5.68-2.07-8.64-.33a2.88,2.88,0,0,1-3.09-.1,4.69,4.69,0,0,0-4.38-.66,1.49,1.49,0,0,1-2-1,3.73,3.73,0,0,0-2.35-2.22A2.76,2.76,0,0,1,70,171.57c.09-.36.19-.72.28-1.09a6.05,6.05,0,0,0-1-5.31,3.1,3.1,0,0,0-3.12-1.34,8,8,0,0,1-3.62-.42,3.53,3.53,0,0,0-3.86.4,20.44,20.44,0,0,0-3,3.27c-2.8,3.66-5.57,7.35-8.27,11.09A9.19,9.19,0,0,0,45.69,184ZM252.3,61.29a15.41,15.41,0,0,0,6.93-2c2.42-1.48,2.61-3.58.48-5.47a4.51,4.51,0,0,0-1-.75c-2.73-1.39-4.16-3.43-3.59-6.64a2.31,2.31,0,0,0-1.76-2.69,20.07,20.07,0,0,0-4.25-.88,72.59,72.59,0,0,1-11.74-1.29c-6.28-1.49-9.81.19-13,5.8-.57,1-1,2.08-1.58,3.12-.72,1.4-1.42,2.82-2.19,4.2-1.77,3.21-4.35,5.2-8.14,5.33-.42,0-.83.06-1.25.09-4.67.35-7.29,2.57-8.39,7.13a13.26,13.26,0,0,0-.37,2c-.21,2.75-.36,5.51,1.15,8,1.3,2.13,1.32,2.16-.4,3.93A3.68,3.68,0,0,0,202,84.78c.58,2.42.26,2.9-2.15,3.48a11.92,11.92,0,0,1-1.47.28,11.25,11.25,0,0,0-5.55,2.06,24.45,24.45,0,0,1-8.08,3.49A72,72,0,0,0,177,96.46a9.47,9.47,0,0,0-5.05,4.42c-.31.58-.07,1.45-.08,2.19a8.6,8.6,0,0,0,2.11-.17c4-1.34,7.94-3,12-4.07a63.05,63.05,0,0,1,18.75-2.32,5,5,0,0,0,4.64-2.41,6.41,6.41,0,0,1,2.6-2,13.42,13.42,0,0,1,3.24-.84,8.81,8.81,0,0,0,6.55-4.49,40.84,40.84,0,0,1,3.34-5.55,11.77,11.77,0,0,0,2.33-8.32c-.29-4.61,1.54-8.45,4.32-11.91a4.67,4.67,0,0,1,2.77-1.64,24.58,24.58,0,0,1,5.81.14C244.35,60,248.32,60.68,252.3,61.29ZM169.16,53.8a3.88,3.88,0,0,0-3.79,1.49,21,21,0,0,0-3.19,4.55c-2.1,4.73-2.24,9.49.42,14.14,1.3,2.28,2.05,4.66.73,7.23a4.78,4.78,0,0,0,.48,5.29,7.19,7.19,0,0,1,1.28,5,59.34,59.34,0,0,1-.87,6.67,24.73,24.73,0,0,1-3.37,8.93c-.33.5-.1,1.38-.13,2.08.67-.06,1.52.12,2-.22a16.82,16.82,0,0,0,3.74-3.38,50.25,50.25,0,0,0,3.41-6.09A14.64,14.64,0,0,1,179,91.71c1.8-.51,3.58-1.1,5.35-1.71a8,8,0,0,0,5-3.89,19.85,19.85,0,0,1,6.9-8c2.62-1.75,3.37-4.52,2.75-7.51-.95-4.61-3-8.61-7.12-11.27a2.74,2.74,0,0,1-1.38-3.17c.52-2.36-.24-3.25-2.65-3.3a5.69,5.69,0,0,0-1.37,0,12.08,12.08,0,0,1-7.3-1,5,5,0,0,0-5.19.6A7.78,7.78,0,0,1,169.16,53.8ZM45,61.2a12.86,12.86,0,0,0-7,1.72,5,5,0,0,0-2.51,5.51c.72,3.47,3,5.64,6,7.17,1.26.64,2.59,1.14,3.83,1.81,1.08.58,1.07,1.13.08,1.85a3.33,3.33,0,0,1-4.75-.42c-1.95-2.14-4-3.11-6.94-1.81a12.27,12.27,0,0,1-9.5.09,4,4,0,0,0-2.31-.2,31.07,31.07,0,0,0-11.77,5.52,8.44,8.44,0,0,0-3.38,6.69,5.1,5.1,0,0,0,.34,1.27,6.82,6.82,0,0,0,1.19-.46,6.72,6.72,0,0,0,1.06-.87,6.71,6.71,0,0,1,7.49-1.49,17.33,17.33,0,0,0,2.53.4,2.68,2.68,0,0,1,1.5.64,6.49,6.49,0,0,0,6.46,2.66,3.79,3.79,0,0,1,3.06,1.3A28,28,0,0,0,35.26,96a4.67,4.67,0,0,0,4.66-.24,14.93,14.93,0,0,1,2.56-1.28c2.92-1,5.84-1.93,8.8-2.77,3.77-1.07,7.61-2.18,11.54-1.38,3.74.76,7.39,1.91,11.08,2.9,2.77.74,5.53,1.54,8.31,2.22a1.62,1.62,0,0,0,1.45-.51,1.74,1.74,0,0,0-.43-1.51,8.34,8.34,0,0,0-1.78-1.1,26,26,0,0,1-4-2.46C75,87.65,72.37,85.77,69,85.07c-2.55-.53-4.14-2-4-4.89a2.67,2.67,0,0,0-.13-.73c-.42-1.77-1.41-2.51-3.18-2.1a3.91,3.91,0,0,1-3.09-.53c-1.26-.8-2.49-1.66-3.73-2.5a3.79,3.79,0,0,1-1.6-2.83c-.3-2.09-.57-4.2-1-6.27a4.41,4.41,0,0,0-4-3.64C47.18,61.41,46.07,61.32,45,61.2ZM230.59,82.68a17,17,0,0,0-3.34,1.67,65.85,65.85,0,0,0-5.75,5.32,9.59,9.59,0,0,1-6.29,3.43c-2.27.19-3.94,1.69-5.66,3-1.11.81-.85,2,.49,2.29a16.44,16.44,0,0,0,3.57.43c4.39.13,8.76-.63,13.19,0a216,216,0,0,1,23.3,4.13,5.1,5.1,0,0,1,2.55,1.41,7.06,7.06,0,0,0,4.48,2.06c3.65.66,7,1.92,8.23,6,.65,2.15,1.47,2.42,3.78,2.29a9.48,9.48,0,0,1,4.37.47,78.72,78.72,0,0,1,7.49,4.43c1.1.67,2.12,1.45,3.22,2.13a3.7,3.7,0,0,0,1.3.38,1.63,1.63,0,0,0,2-.91,2.54,2.54,0,0,0-.06-1.94,161.67,161.67,0,0,1-9.92-19,17.42,17.42,0,0,0-2.77-4.12,14.15,14.15,0,0,0-14-5,5,5,0,0,1-5.12-1.85,7.93,7.93,0,0,0-4.88-2.76,47.22,47.22,0,0,0-12.67-.56,4.81,4.81,0,0,1-4.28-1.41C233.06,83.67,231.76,83.31,230.59,82.68Zm-57-39.06a5,5,0,0,0-1.19-4.3,5.86,5.86,0,0,1-1.53-4,3.34,3.34,0,0,0-.53-1.77,13.6,13.6,0,0,1-2.07-6.33c-.64-4.92.24-9.11,5.11-11.64,2.58-1.35,5.1-2.82,7.59-4.31a6.09,6.09,0,0,0,1.89-1.75,1.4,1.4,0,0,0-.95-2.37A11.28,11.28,0,0,0,178.36,7a23,23,0,0,1-8.9,0c-2.59-.64-4.26.58-5.23,3.05A19.81,19.81,0,0,1,162,14.2c-1.47,2.06-3.18,3.95-4.7,6a10.74,10.74,0,0,0-2.17,7.73,84,84,0,0,1,.25,8.84c-.07,3.42.4,6.61,2.63,9.38a4.31,4.31,0,0,1,.65,4.47,4.85,4.85,0,0,0,.82,4.5,2.41,2.41,0,0,0,3,.92,4.77,4.77,0,0,0,2.8-2.35A5.29,5.29,0,0,1,168.68,51a21.31,21.31,0,0,0,3.51-1.28c1.81-.89,2.28-2.24,1.72-4.14A12.06,12.06,0,0,1,173.61,43.62Zm-37.8,34.79-.05.28c-1,0-2.08.08-3.12.16a3.58,3.58,0,0,0-1,.25,3.1,3.1,0,0,0-2,3.24c.1,1.22.73,1.79,2.4,2.06a4.83,4.83,0,0,0,1.73.08,10.83,10.83,0,0,1,8,1.48c2.51,1.5,5.14,2.12,8,.94a3.48,3.48,0,0,1,.73-.13c1.5-.22,2.33.18,2.79,1.27.55,1.31-.47,1.84-1.25,2.38-1.6,1.11-3.25,2.19-4.94,3.15A4.19,4.19,0,0,0,145,97.38a17,17,0,0,1-.28,2.47,1.42,1.42,0,0,1-1.5,1.21c-1.42,0-1.86.47-2,1.84a11.22,11.22,0,0,0,1,5.84,3.63,3.63,0,0,0,3.11,2.31c1.44.17,2.86.46,4.28.75,4.35.91,6.71-.56,7.68-4.85a3.62,3.62,0,0,1,2.21-2.68,4.06,4.06,0,0,0,2.46-3A33.31,33.31,0,0,0,162,86.13c-.65-2.86-2.54-4.28-5.27-4.8-.85-.16-1.73-.22-2.59-.31-2.56-.25-5.14-.4-7.68-.78C142.91,79.72,139.37,79,135.81,78.41ZM83.63,20.59c-6.2-.11-11.8,1.48-16.58,5.49a7.32,7.32,0,0,0-2.83,6.48c.19,2.29,1.07,3,3.35,2.62a49.29,49.29,0,0,0,11.17-3.44A23,23,0,0,1,87,29.61a21.64,21.64,0,0,1,12.33,3.32c2.32,1.39,4.64,2.79,7,4a3.71,3.71,0,0,0,2.77.36,2.71,2.71,0,0,0,1.28-3,6.93,6.93,0,0,0-.9-2.95,56.77,56.77,0,0,0-5.19-6.65,8.77,8.77,0,0,0-5.82-2.83C93.56,21.47,88.6,21,83.63,20.59ZM238.94,60.43l-.09.34a6.2,6.2,0,0,0-.62-.06c-5.15-.16-8,3-6.47,7.91.47,1.46,1,2.9,1.45,4.38.48,1.79.52,3.54-1,5a4.45,4.45,0,0,0-.82,1.1c-.54,1-.37,2.32.37,2.72,1,.56,1.72-.07,2.38-.76.89-.92,1.73-1.92,2.71-2.75,1.74-1.47,3.45-3,6-3.09a2.25,2.25,0,0,0,1.44-.87c2.15-2.65,5.15-3.33,8.28-3.78,1-.15,2.28-.08,3-.66,1.86-1.54,4-1.74,6.2-1.84A7.78,7.78,0,0,0,267,65.79a1.09,1.09,0,0,0,.25-1.52,3.33,3.33,0,0,0-3.65-1.58,24.18,24.18,0,0,0-4.13.92,11,11,0,0,1-6.85.17c-1-.28-2-.53-3-.78ZM88.65,92.82c-.7.35-1.56.51-1.81,1s.21,1.23.52,1.76a3.82,3.82,0,0,0,1.3,1.32,31.29,31.29,0,0,0,5.49,2.88,47.59,47.59,0,0,1,14.44,8c5.18,4.1,11.34,6,17.41,8.13a8,8,0,0,0,1.22.25,2.26,2.26,0,0,0,2.61-1,2.18,2.18,0,0,0-.48-2.84,34.2,34.2,0,0,0-3.42-2.68,38.18,38.18,0,0,1-3.41-2.28,34.51,34.51,0,0,0-9.52-6.1c-4.77-2-9.56-4.08-14.44-5.83C95.37,94.3,92,93.68,88.65,92.82Zm24.85-8.19a5.09,5.09,0,0,0,.08.75c1,4.34,2.55,8.42,5.61,11.8,2.61,2.89,5.41,5.65,7,9.35a7.3,7.3,0,0,0,1.73,2.28,14,14,0,0,1,4.37,7.91,6.48,6.48,0,0,0,1.54,2.77,2.49,2.49,0,0,0,3.22.24,2.09,2.09,0,0,0,1-2.66,9,9,0,0,0-1.13-2.33,7.53,7.53,0,0,1-1.51-4.28c0-3.4-1.6-5.67-5-6.6a4.8,4.8,0,0,1-1.5-.59,13.87,13.87,0,0,1-2.59-2.09,38.23,38.23,0,0,1-2.59-3.66,16.87,16.87,0,0,1-2.85-7.37,61.44,61.44,0,0,0-1.26-6.6,3.21,3.21,0,0,0-3.59-2.44C114.36,81.38,113.51,82.47,113.5,84.63Zm19.35,6.71c.14-2.34-.85-3.53-3.06-3.68a4,4,0,0,0-4.3,3.07,6.66,6.66,0,0,0,1.65,6.36c.66.75,1.33,1.49,2,2.19a7.89,7.89,0,0,0,5.27,2.52c1.66.08,2.56-1,2-2.55a8.06,8.06,0,0,0-1.67-2.71A7.07,7.07,0,0,1,132.85,91.34Zm14.27-36.63c.2,1.64.29,3.23.61,4.77A24.79,24.79,0,0,0,151,68.42a2.36,2.36,0,0,0,2.5,1.31c1.13-.31,1.09-1.47,1.12-2.4a12,12,0,0,0-2.88-8.9,5.11,5.11,0,0,1-1.42-4.81,2.75,2.75,0,0,0,0-1.48,10.73,10.73,0,0,0-1.06-1.68c-.59.45-1.45.79-1.71,1.38A10.7,10.7,0,0,0,147.12,54.71Zm8.32,21.36c0-2.5-1.89-4.89-4-5.12a3,3,0,0,0-3.19,2.35c-.24,1.56.46,2.47,2.25,2.74.85.13.92.59.89,1.31a1.69,1.69,0,0,0,2.4,1.74C154.88,78.71,155.45,77.69,155.44,76.07Zm-28.7-6.68a13.42,13.42,0,0,0,2.19,6.7c.55.66,1.24,1.3,2.13.85a1.68,1.68,0,0,0,.79-2.26,64.22,64.22,0,0,0-3-5.66,1.68,1.68,0,0,0-1.43-.66C127,68.47,126.83,69.24,126.74,69.39Zm-3.4-2.66c0-1.73-2.41-4.78-3.91-5.11a1.27,1.27,0,0,0-1.68,1.19,2.83,2.83,0,0,0,.31,1.78A33.93,33.93,0,0,0,121,68.32c.7.79,1.64.54,2.08-.45A5.76,5.76,0,0,0,123.34,66.73ZM160.27,75a20.09,20.09,0,0,0-.38-2.84c-.12-.45-.76-1.13-1.06-1.08a1.87,1.87,0,0,0-1.28,1.06,36.65,36.65,0,0,0-.8,4.89,2.41,2.41,0,0,0,.5,1.73,3.27,3.27,0,0,0,1.91.84c.23,0,.69-.88.79-1.41A29.85,29.85,0,0,0,160.27,75ZM124.22,87.07a3.88,3.88,0,0,0,4-3c.24-1.46-.58-2.4-2.06-2.11a10,10,0,0,0-2.85,1.1A2,2,0,0,0,122,85.49,2.35,2.35,0,0,0,124.22,87.07Zm23.51-19,.18,0c-.33-1.44-.61-2.9-1-4.33-.09-.32-.52-.77-.8-.77s-.71.44-.81.77a12.37,12.37,0,0,0-.71,3.25,5.93,5.93,0,0,0,.75,2.78c.28.48,1.12.66,1.7,1,.23-.59.49-1.17.67-1.77A3.07,3.07,0,0,0,147.73,68.05Zm-4.64,7.58a21.29,21.29,0,0,0-.74-2.85,1.76,1.76,0,0,0-2.34-1,1.83,1.83,0,0,0-.83,2.44c.6,1.31,1.31,2.57,2,3.83.41.72,1,.67,1.28-.05A16.47,16.47,0,0,0,143.09,75.63ZM93.4,74.81c-1.17,0-1.77.55-1.57,1.51a4.56,4.56,0,0,0,4.11,3.23,1.3,1.3,0,0,0,1.31-1.86A4.48,4.48,0,0,0,93.4,74.81Zm45-3a34,34,0,0,0-1.61-3.67,1.65,1.65,0,0,0-1.5-.43,1.48,1.48,0,0,0-.75,1.24,12.2,12.2,0,0,0,.92,3.42c.33.69,1.15,1.14,1.74,1.7Zm8.41,3.17a6.92,6.92,0,0,0-.53-2,1.84,1.84,0,0,0-1.3-.87,1.56,1.56,0,0,0-1,1.16,37,37,0,0,0,.14,4.21,1.42,1.42,0,0,0,.39.77c.45.51,1,.61,1.25-.12C146.17,77.06,146.47,75.94,146.78,74.94ZM88.72,79.21c0,1.88.82,3,2.35,3.26a1.84,1.84,0,0,0,1.5-.47,1.7,1.7,0,0,0,0-1.58,8.24,8.24,0,0,0-1.91-1.91,1.6,1.6,0,0,0-1.36-.17C89,78.49,88.8,79.07,88.72,79.21ZM158,61.15l-.58-.1a12,12,0,0,0-.87,3.09,15.57,15.57,0,0,0,.71,4c.15.53.84.82,1.05.05A11.94,11.94,0,0,0,158,61.15Zm-25,5.39c0-1.89-1.83-3.42-3.1-3.05a1.22,1.22,0,0,0-.58,1,11.76,11.76,0,0,0,.65,2.12c.28.8.66,1.77,1.66,1.37C132.26,67.72,132.69,66.85,133,66.54Z"/><path class="cls-2" d="M69.8,159.65a11.38,11.38,0,0,1-9.58-3.92,11.92,11.92,0,0,1-3.34-5.89,3.84,3.84,0,0,1,.68-3.3,21.77,21.77,0,0,1,1.84-2.21,4.65,4.65,0,0,0,1.25-4.8c-.22-.89-.37-1.79-.54-2.69a5.08,5.08,0,0,1,2.82-6,11.05,11.05,0,0,1,1.8-.87,14.36,14.36,0,0,0,6.46-4.53c3.48-4.24,8.22-5.94,13.4-6.31,8.67-.62,17.29-1.58,25.87-3a24.77,24.77,0,0,1,9.4.25c.75.16,1.41.72,2.16.91a21.15,21.15,0,0,0,3,.41,7.76,7.76,0,0,1,2.06.09,10.74,10.74,0,0,1,5.34,4.68,4.15,4.15,0,0,1,.16,4,3.45,3.45,0,0,1-.32.67c-2.4,3.14-2.47,6.75-2.27,10.47a33.52,33.52,0,0,1-.3,5.83,4.38,4.38,0,0,1-2.32,3.54c-3.6,1.66-4.4,4.61-4.61,8.23-.45,7.72-7.34,14.63-15.1,15.35a45.65,45.65,0,0,1-4.8-.24,5.7,5.7,0,0,0-2.48.38,17.74,17.74,0,0,0-3.2,2.15c-3,2.44-6.29,3.17-9.87,1.45a2.77,2.77,0,0,0-3.59.64,2.83,2.83,0,0,1-3.81.65,4.36,4.36,0,0,0-2.18-.24A2.36,2.36,0,0,1,75.34,174a3.77,3.77,0,0,0-1-1.2c-1.45-1-1.65-1.68-.89-3.34a8.43,8.43,0,0,0,.81-5.8A9.26,9.26,0,0,0,72.94,161,3,3,0,0,0,69.8,159.65Z"/><path class="cls-2" d="M146.09,114.2a11.65,11.65,0,0,1,6.24,1.54c1.68,1,2.78.74,4-.82.54-.69,1-1.44,1.54-2.13,1.46-1.84,3.62-2.15,5.19-.44,1.79,2,3.94,2.41,6.4,2.43a14.89,14.89,0,0,1,3.3.5c3.15.76,6.27,1.64,9.44,2.33a6.21,6.21,0,0,1,3.55,1.91,12.13,12.13,0,0,0,6.53,3.87,6.91,6.91,0,0,1,5.49,5.39,24.36,24.36,0,0,0,4.21,9,9.92,9.92,0,0,1,1.65,7.26,5.37,5.37,0,0,1-1.4,2.53c-1.46,1.7-1.49,2.31.14,3.81a2.41,2.41,0,0,1-.77,4.18,10.25,10.25,0,0,1-2.43.47c-.82.11-1.66.12-2.47.25a1.93,1.93,0,0,0-1.83,1.75,1.58,1.58,0,0,1-1.88,1.53,12.68,12.68,0,0,1-1.75-.07,5,5,0,0,0-4.42,1.08,3.36,3.36,0,0,1-2.55.52c-3.06-.74-5.19.48-6.8,2.91-1.2,1.8-2.23,3.72-3.42,5.52-1.9,2.86-4.67,3.74-7.94,3.21a5.7,5.7,0,0,1-4.5-3.4c-.77-1.78-1.26-3.69-1.89-5.53a12.49,12.49,0,0,0-1-2.66,2.24,2.24,0,0,0-1.63-1,1.48,1.48,0,0,0-1.41,1.73c.11,1.49.24,3,.44,4.46.41,3-.36,4.87-2.58,6.08a4.17,4.17,0,0,1-4.93-.19,61.47,61.47,0,0,1-4.55-4.58c-1-1-1.85-2-2.83-3a3.19,3.19,0,0,0-3.79-.67c-.31.14-.62.25-.93.39-2.72,1.17-4.07.73-5.63-1.8-1.91-3.09-1.91-6.38-1-9.75a35.1,35.1,0,0,1,1.47-4.63,31.43,31.43,0,0,0,2.09-10.6c.12-2.2,0-4.4.13-6.59a4.4,4.4,0,0,1,1-2.6,13.85,13.85,0,0,0,3-5.09c.83-2.32,1.73-4.62,3.94-6a.7.7,0,0,0,.28-.4C142.41,114.41,144.28,114.11,146.09,114.2Z"/><path class="cls-2" d="M217.89,173.35c1.12,1.2,2.15,2.22,3.1,3.32a12.88,12.88,0,0,1,1.57,2.24,2.86,2.86,0,0,1-1.77,4.37c-1,.34-2.08.58-3.1.92a1.58,1.58,0,0,0-1.27,1.86,2.31,2.31,0,0,1-1,2.29c-1.25,1-2.49,2-3.79,2.84a4.84,4.84,0,0,1-5,.36c-1.07-.47-2.08-1.05-3.13-1.56a19.47,19.47,0,0,0-2.36-1.11c-1.44-.48-2.34.35-2,1.82.2.8.6,1.55.86,2.34a10.93,10.93,0,0,1,.59,2.28c.18,2-1.33,3.19-3.3,2.57-.51-.16-1-.44-1.49-.63-1.94-.72-2.95.07-2.66,2.1.12.78.24,1.56.34,2.34a2.4,2.4,0,0,1-1.16,2.68,12.87,12.87,0,0,0-5.44,5.49,4.89,4.89,0,0,1-3.81,2.31c-.62.11-1.23.22-1.85.3a4.29,4.29,0,0,0-3.79,3.27c-1.52,4.77-8,6.35-11.72,3-1.23-1.12-2-1.16-3.23,0a2.49,2.49,0,0,1-3.27.55,23.35,23.35,0,0,1-3.24-2.45c-.83-.75-1.47-1.69-2.25-2.5a1.84,1.84,0,0,0-2.49-.26c-2.09,1.21-3.59.91-5-1.11a23.61,23.61,0,0,1-1.42-2.9,20.88,20.88,0,0,0-1.5-2.85,1.8,1.8,0,0,0-1.44-.7,3.28,3.28,0,0,1-3.69-2,19.75,19.75,0,0,1-1.57-5.05c-.41-2.41-.45-4.88-.79-7.3a8.42,8.42,0,0,0-2.55-4.9,22.19,22.19,0,0,1-1.57-1.78c-1-1.26-1.45-2.55-.4-4.09a2.63,2.63,0,0,0,.17-1.89c-.44-1.85-1-3.68-1.53-5.51-.7-2.33-.06-4.54.67-6.7.15-.47.92-.76,1.45-1.05a1.06,1.06,0,0,1,.85.06c2.91,1.56,6.39,2.09,8.45,5.16a12,12,0,0,0,7.62,5.05,12.82,12.82,0,0,0,9.07-1.16c1.85-1,2.48-.76,2.9,1.26.34,1.65,1.35,2.07,2.82,2.23,4.19.46,8.22.11,11.55-2.73a17.49,17.49,0,0,0,3.14-4.11c.86-1.36,1.35-3,2.23-4.3a4.72,4.72,0,0,1,5.24-2.29,7.33,7.33,0,0,0,2.6,0c2.67-.46,5.34-.9,8-1.55a11.47,11.47,0,0,0,3.91-1.73c2.23-1.62,4.75-1.25,6.94.72a14,14,0,0,0,6.47,3.23,18.09,18.09,0,0,1,3.64,1.28,6.68,6.68,0,0,1,2.15,1.65c1.24,1.47.9,2.83-.78,3.75C218.62,172.91,218.3,173.11,217.89,173.35Z"/><path class="cls-2" d="M233.59,179.2c-.23.72-.5,1.43-.68,2.17-.5,2-1.46,2.85-2.89,2.53a3.21,3.21,0,0,1-2.29-3.77,18.55,18.55,0,0,1,.75-2.25,3.32,3.32,0,0,0-1-4.14,7.34,7.34,0,0,1-2.49-4.06c-1.07-3.64-2.43-4.61-6.22-5a5.83,5.83,0,0,1-3.25-1.3,9.06,9.06,0,0,0-5.85-2.41,9.45,9.45,0,0,1-1.59-.28c-2.2-.57-2.64-1.84-1.26-3.67.6-.8,1.31-1.51,1.93-2.29,1.35-1.71,1.3-2.32-.38-3.7a2.85,2.85,0,0,1-1.1-2.87c.13-.86.27-1.72.38-2.59a8.44,8.44,0,0,0-1-5.77c-1.55-2.52-3.1-5-4.59-7.59a19.12,19.12,0,0,1-1.55-3.38c-.16-.5.14-1.14.23-1.72a5.41,5.41,0,0,1,1.6.32,19.69,19.69,0,0,1,3,2c3.12,2.71,6.85,3.79,10.85,4.3a31.09,31.09,0,0,1,3.9.82,8.81,8.81,0,0,1,5.24,3.37c.48.67,1,1.3,1.53,2,1.67,2.29,3.75,3.4,6.68,2.66,1.25-.31,2.53-.3,3.36,1.16a2.24,2.24,0,0,0,1.87.6,16.9,16.9,0,0,0,3.19-1c.85-.32,1.66-.76,2.53-1,1.3-.42,2.62-.65,3.76.41s1.31,2.06.84,4a6.49,6.49,0,0,0,.81-.19,13.9,13.9,0,0,1,9.23-.22c3.76,1.12,6,3.55,7.77,6.71a13,13,0,0,0,1.4,1.91,7.41,7.41,0,0,1,2,4.59,7.45,7.45,0,0,0,.92,2.8c1.54,3.08,2.89,6.19,2.74,9.74a6.66,6.66,0,0,1-1.71,4.31,2.58,2.58,0,0,1-3.15.68c-.74-.27-1.48-.55-2.24-.75-1.4-.36-2.27-.09-2.65,1.31-.84,3.13-3,3.76-5.81,3.59-1.29-.09-2.57-.15-3.86-.26-1-.08-1.5.28-1.62,1.27s-.35,2-.43,3.08c-.2,2.77-1.39,4.39-4.07,5.17-3.49,1-6.84.24-10.07-1.15a16.14,16.14,0,0,1-2.69-1.57,3.87,3.87,0,0,1-1.59-4.59,15.8,15.8,0,0,0,.39-2.83,4.14,4.14,0,0,0-.27-1.09Z"/><path class="cls-2" d="M212.61,100.17c8.13-.37,16,1.09,24,2.72,3.66.76,7.34,1.48,11,2.16,7.14,1.32,12.18,5.43,15.65,11.67,1.25,2.25,2.64,4.42,3,7.07.32,2.37-.73,3.51-3.12,3.14a29.72,29.72,0,0,1-4.38-1c-2.59-.81-4.81.73-6,2.74a14,14,0,0,1-4.68,5.24,2.2,2.2,0,0,0-.56.49,4.49,4.49,0,0,1-5.33,1.59,2.82,2.82,0,0,0-2.05.7c-.74.56-1.35,1.08-2.33.65a1.76,1.76,0,0,1-.94-2.1,5.11,5.11,0,0,0-1.26-3.89c-1.24-1.66-2.14-3.56-3.31-5.28a14.81,14.81,0,0,0-2.71-3.23,6.63,6.63,0,0,0-2.93-1,1.54,1.54,0,0,0-1.29.74c-.12.31.29,1,.63,1.31,1.37,1.39,2.87,2.65,4.19,4.09s2.61,3.13,3.86,4.74a9,9,0,0,1,1,1.84c.6,1.36,1.1,2.78,0,4.1a4.6,4.6,0,0,1-4.9.78,11.76,11.76,0,0,1-3.26-2.63c-2.17-2.67-5-3.95-8.22-4.83-3.4-.92-6.75-2.08-10.06-3.31a36,36,0,0,1-4.26-2.32,4.68,4.68,0,0,0-1.68-.73c-1.49-.1-2.35-1-3.29-2a9.83,9.83,0,0,0-2.84-2.07c-3.6-1.72-7.36-3.12-10.87-5a33.62,33.62,0,0,0-13.44-3.79,35.5,35.5,0,0,1-5.76-1c-1.76-.44-2-1.58-.51-2.55a41.13,41.13,0,0,1,7-3.56,65.25,65.25,0,0,1,19.19-4.12c4.72-.38,9.43-.94,14.15-1.31C208.36,100,210.49,100.17,212.61,100.17Z"/><path class="cls-3" d="M146.26,49.58q-1.2-5.2-2.41-10.41l-.54-.08a8.18,8.18,0,0,0-.95,1.42c-1.3,3.17-1.11,6.43-.56,9.71.3,1.76.71,3.5,1,5.27a6,6,0,0,1,.09,2.22c-.14.65-.56,1.58-1.05,1.71a2.38,2.38,0,0,1-1.83-.87,7.64,7.64,0,0,1-1.27-2.27c-.56-1.39-1-2.81-1.52-4.23-.32-.93-.85-1-1.45-.33s-1.31,1.62-2,2.41c-1.17,1.4-1.89,1.4-2.88-.16s-1.87-3.24-2.8-4.86-1.67-3-2.62-4.39c-.28-.43-1-.59-1.47-.87a5.73,5.73,0,0,0-.81,1.57,8.62,8.62,0,0,0,1,5.07,39.26,39.26,0,0,1,1.85,3.81,22.16,22.16,0,0,1,1.18,4.8c.18,1.61-.83,2.27-2.29,1.51A9.86,9.86,0,0,1,122,58.33c-2.08-2.48-4-5.11-6-7.66a14.43,14.43,0,0,0-1.35-1.36l-.34.15c0,.72,0,1.44,0,2.16a25,25,0,0,1,.09,3.23,2.11,2.11,0,0,1-.93,1.56,2,2,0,0,1-1.72-.46c-2.28-2.25-4.5-4.57-6.69-6.91a3.69,3.69,0,0,1-.28-4.52,3.49,3.49,0,0,1,4-1.69c2.66.47,2.77.43,3.72-2.14a2.61,2.61,0,0,1,2-1.83,1.63,1.63,0,0,0,1.37-2.31,22.89,22.89,0,0,0-1.79-3.82c-1.75-3.06-3.64-6-5.33-9.15a10.66,10.66,0,0,1-1-7.63,9.41,9.41,0,0,0,.08-3.09c-.48-3.94.55-6,4.09-7.81a10.7,10.7,0,0,1,9.84-.47c1.78.81,3.55,1.64,5.31,2.51a8.57,8.57,0,0,0,6.17.68,7.24,7.24,0,0,1,5.77.8,11,11,0,0,0,2,.93,5.32,5.32,0,0,0,4.86-.36c2.61-1.59,5.05-.6,6,2.33a19.35,19.35,0,0,1,.94,7.87,14.05,14.05,0,0,0,.17,4.09,47.3,47.3,0,0,1,.61,12.29,10.58,10.58,0,0,0,.58,4.4c.92,2.49,2.19,4.84,3.29,7.26a5.18,5.18,0,0,1,.51,1.51c0,.29-.25.63-.39.94a6.94,6.94,0,0,1-1-.58c-.38-.32-.71-.71-1.06-1.07a8.74,8.74,0,0,0-.06,1.61c.46,3.12,1,6.23,1.45,9.35a4.28,4.28,0,0,1-.42,1.57c-.53-.32-1.34-.53-1.54-1a54.13,54.13,0,0,1-2.47-6.49c-.78-2.67-1.25-5.43-2-8.12-.19-.7-.22-1.88-1.36-1.77s-1.12,1.18-1.26,2-.24,1.9-.44,2.84a7.83,7.83,0,0,1-.57,1.39Z"/><path class="cls-2" d="M85,33.82A35.87,35.87,0,0,1,99.24,36.7c3.46,1.5,4.74,6.82,2.36,9.73-1.5,1.83-1.65,3.24-.13,5.14a51.38,51.38,0,0,0,4.43,4.55c4.46,4.3,9,8.57,13.42,12.86,2,1.9,4,3.82,5.88,5.77a8.66,8.66,0,0,1,1.48,2,1.62,1.62,0,0,1-1.56,2.55,14.38,14.38,0,0,1-9.71-3.94c-.73-.65-1.13-1.1-2.15-.29a3.09,3.09,0,0,1-2.46,0c-1.16-.42-2.16-1.25-3.31-1.71a16.75,16.75,0,0,0-4-1.15,4.32,4.32,0,0,1-3.39-1.75c-1-1.47-1.69-1.48-3-.3-.9.81-1.72.57-2-.61C95,69,95,68.36,94.81,67.81c-.08-.28-.37-.64-.6-.67s-.6.22-.78.45c-1.24,1.55-1.54,1.6-2.71-.09a4.86,4.86,0,0,0-4-2.52c-.69,0-1.4-.9-2-1.48a20.65,20.65,0,0,0-1.49-1.82,2,2,0,0,0-1.59-.2,1.4,1.4,0,0,0-.62,1.2,19.07,19.07,0,0,0,.9,4.19c.63,1.66.48,3.06-1.12,3.85-2.37,1.19-2.51,2.43-1.3,4.9a19,19,0,0,0,8.4,8.59c2.39,1.27,4.73,2.62,7.08,3.94l.22.13c.77.49,1.74.94,1.47,2.06s-1.35,1.24-2.24,1.17C87.53,91,80.94,89.71,76.21,84c-.74-.9-1.59-1.71-2.33-2.61a12.4,12.4,0,0,0-6.17-4.24,7.46,7.46,0,0,1-2.66-1.32,3.68,3.68,0,0,1-1.44-2.19c0-3.18-1.58-5.81-2.74-8.6s-2.35-5.87-3.44-8.83a15,15,0,0,1-.6-2.92,5.13,5.13,0,0,1,1.4-4.6,11.21,11.21,0,0,0,3.26-6.44,4.35,4.35,0,0,1,3.34-3.67c5.32-1.48,10.64-2.93,16-4.26A25.06,25.06,0,0,1,85,33.82Z"/><path class="cls-2" d="M169.9,24.64a7,7,0,0,1,2.25-5.47,25.68,25.68,0,0,1,14.52-7.68,18.06,18.06,0,0,1,9.1.77A6.71,6.71,0,0,1,198,13.57a16.24,16.24,0,0,0,7.62,3.78c1.45.35,2.89.78,4.32,1.21a10.11,10.11,0,0,1,5.17,3.3,5.76,5.76,0,0,0,3.79,2.22,7.66,7.66,0,0,1,5.12,3c1.42,1.84,2.82,3.71,4.09,5.65a5.86,5.86,0,0,1-.09,6.82c-1.21,1.82-2.81,3.39-4.12,5.15s-2.35,3.39-3.43,5.15c-.95,1.56-1.66,3.26-2.7,4.75a3,3,0,0,1-2.17,1.13c-3.43-.17-6.3,1.25-9.13,2.85-.94.53-1.81,1.21-2.77,1.68-1.57.76-2.49.15-2.55-1.58-.07-2.16-.4-2.45-2.54-2.19-3,.35-3.63-.07-4.52-3-.83-2.7-1.89-3.49-4.69-3.53-.67,0-1.34,0-2,0a8.94,8.94,0,0,1-6.75-2.69,1.68,1.68,0,0,0-2.09-.46c-1.13.5-1.83.14-2.06-1.14a34.86,34.86,0,0,1-.53-4.45,4.19,4.19,0,0,0-1.62-3.23,5.1,5.1,0,0,1-1.89-3.62,27.79,27.79,0,0,0-1.2-3.9c-.58-1.94-1.12-3.89-1.67-5.83Z"/><path class="cls-3" d="M71.11,107.32c-1.74.17-3.49.3-5.23.53a10.38,10.38,0,0,0-2.65.65A20.44,20.44,0,0,1,55.71,110a2.49,2.49,0,0,0-1.3.36,6.74,6.74,0,0,1-4.18.91,20.87,20.87,0,0,0-3.34.32,1.92,1.92,0,0,1-2.3-1.19A5.4,5.4,0,0,0,43,108.57c-1.89-1.42-2.11-2.78-.45-4.41a2.15,2.15,0,0,0,.69-2.64,1.73,1.73,0,0,1,1-2.29A26.87,26.87,0,0,1,49,97.08c2.34-.72,4.76-1.19,7.16-1.68a14.85,14.85,0,0,1,7.66.24,58.93,58.93,0,0,0,13.28,2.74c6.25.53,11.94,2.77,17.4,5.73,1.9,1,3.81,2.07,5.75,3,1.23.59,2.55,1,3.83,1.49a17.07,17.07,0,0,1,2.75,1.13c1.86,1.13,1.81,3.35-.21,4a41.12,41.12,0,0,1-7.13,1.7c-7.09,1.13-14.21,2.13-21.32,3.19a31.8,31.8,0,0,0-4.06.64c-1.75.5-3.43,1.21-5.12,1.86-1.51.58-3,1.29-4.51,1.81a16,16,0,0,0-9.79,8.34c-3.29,6.83-9.26,10-16.18,11.76-4,1-8,2-12.07,3a6.39,6.39,0,0,1-1.23.17c-3.08.19-4.41-1-4.36-4.12A10.58,10.58,0,0,1,22.91,136c1.2-1.67,2.12-3.54,3.27-5.25A13,13,0,0,1,28.5,128a8.08,8.08,0,0,0,2.38-3.27,44.91,44.91,0,0,1,2.49-5,3.43,3.43,0,0,1,4-1.76c2,.42,2.41.12,3.09-1.87a3.08,3.08,0,0,1,4.46-2,6.81,6.81,0,0,0,4.47.34,17.92,17.92,0,0,1,4.21-.17,7.51,7.51,0,0,0,4.3-1A31.87,31.87,0,0,1,69,109a11.11,11.11,0,0,0,2.3-.91Z"/><path class="cls-2" d="M45.69,184a9.19,9.19,0,0,1,1.6-5.8c2.7-3.74,5.47-7.43,8.27-11.09a20.44,20.44,0,0,1,3-3.27,3.53,3.53,0,0,1,3.86-.4,8,8,0,0,0,3.62.42,3.1,3.1,0,0,1,3.12,1.34,6.05,6.05,0,0,1,1,5.31c-.09.37-.19.73-.28,1.09a2.76,2.76,0,0,0,1.78,3.62,3.73,3.73,0,0,1,2.35,2.22,1.49,1.49,0,0,0,2,1,4.69,4.69,0,0,1,4.38.66,2.88,2.88,0,0,0,3.09.1c3-1.74,5.82-1.22,8.64.33.55.31,1.07.64,1.61,1,2.33,1.35,4.16,1.22,6.13-.61a14.46,14.46,0,0,0,2.1-2.62c1-1.45,1.55-1.9,3.2-1.37,2,.66,3.7,0,5.44-.9s3.83-1.8,5.7-2.79a14.74,14.74,0,0,0,2.72-1.93c1.36-1.16,2.6-2.45,3.95-3.62a6.63,6.63,0,0,1,1.82-1.06c1.29-.54,2.16,0,2,1.33a7.5,7.5,0,0,1-1,3.26c-1,1.49-2.26,2.75-3.35,4.17a47,47,0,0,0-2.78,4c-1.21,1.95-2.33,3.94-3.44,5.94-1.48,2.69-2.92,5.41-4.38,8.12a28.7,28.7,0,0,1-1.58,2.82c-.93,1.34-2,2.32-3.92,2.12-1.63-.17-2.55,1.22-3.67,2.13a1.68,1.68,0,0,0-.24.28A10.12,10.12,0,0,1,94.77,204a7.81,7.81,0,0,0-6.47,3.86,7.27,7.27,0,0,1-2.78,2.37c-1.5.74-2.72.17-3.57-1.29-.36-.61-.63-1.27-1-1.89a5.17,5.17,0,0,0-5.77-2.95c-1.85.21-3.72.39-5.59.42-2.56,0-3.28-.9-2.84-3.43.1-.61.28-1.21.39-1.83a2.18,2.18,0,0,0-1.69-2.86c-1.81-.6-3.65-1.14-5.47-1.71a4.63,4.63,0,0,1-3.37-3.79,18.49,18.49,0,0,0-.87-3.12,5.6,5.6,0,0,0-1.15-1.9,2,2,0,0,0-3.36.65c-.38.87-.54,1.85-1,2.69-.29.57-.83,1.32-1.34,1.39a2.12,2.12,0,0,1-1.72-.92,22.24,22.24,0,0,1-1.44-3.93A7.68,7.68,0,0,1,45.69,184Z"/><path class="cls-3" d="M252.3,61.29c-4-.61-8-1.29-12-1.79a24.58,24.58,0,0,0-5.81-.14A4.67,4.67,0,0,0,231.77,61c-2.78,3.46-4.61,7.3-4.32,11.91a11.77,11.77,0,0,1-2.33,8.32,40.84,40.84,0,0,0-3.34,5.55,8.81,8.81,0,0,1-6.55,4.49,13.42,13.42,0,0,0-3.24.84,6.41,6.41,0,0,0-2.6,2,5,5,0,0,1-4.64,2.41A63.05,63.05,0,0,0,186,98.83c-4.08,1-8,2.73-12,4.07a8.6,8.6,0,0,1-2.11.17c0-.74-.23-1.61.08-2.19A9.47,9.47,0,0,1,177,96.46a72,72,0,0,1,7.74-2.37,24.45,24.45,0,0,0,8.08-3.49,11.25,11.25,0,0,1,5.55-2.06,11.92,11.92,0,0,0,1.47-.28c2.41-.58,2.73-1.06,2.15-3.48a3.68,3.68,0,0,1,1.26-3.68c1.72-1.77,1.7-1.8.4-3.93-1.51-2.49-1.36-5.25-1.15-8a13.26,13.26,0,0,1,.37-2c1.1-4.56,3.72-6.78,8.39-7.13.42,0,.83-.07,1.25-.09,3.79-.13,6.37-2.12,8.14-5.33.77-1.38,1.47-2.8,2.19-4.2.53-1,1-2.1,1.58-3.12,3.14-5.61,6.67-7.29,13-5.8a72.59,72.59,0,0,0,11.74,1.29,20.07,20.07,0,0,1,4.25.88,2.31,2.31,0,0,1,1.76,2.69c-.57,3.21.86,5.25,3.59,6.64a4.51,4.51,0,0,1,1,.75c2.13,1.89,1.94,4-.48,5.47A15.41,15.41,0,0,1,252.3,61.29Z"/><path class="cls-2" d="M169.16,53.8A7.78,7.78,0,0,0,174,52.46a5,5,0,0,1,5.19-.6,12.08,12.08,0,0,0,7.3,1,5.69,5.69,0,0,1,1.37,0c2.41.05,3.17.94,2.65,3.3a2.74,2.74,0,0,0,1.38,3.17C196,62,198.05,66,199,70.57c.62,3-.13,5.76-2.75,7.51a19.85,19.85,0,0,0-6.9,8,8,8,0,0,1-5,3.89c-1.77.61-3.55,1.2-5.35,1.71a14.64,14.64,0,0,0-9.16,7.75,50.25,50.25,0,0,1-3.41,6.09,16.82,16.82,0,0,1-3.74,3.38c-.46.34-1.31.16-2,.22,0-.7-.2-1.58.13-2.08a24.73,24.73,0,0,0,3.37-8.93,59.34,59.34,0,0,0,.87-6.67,7.19,7.19,0,0,0-1.28-5,4.78,4.78,0,0,1-.48-5.29c1.32-2.57.57-4.95-.73-7.23-2.66-4.65-2.52-9.41-.42-14.14a21,21,0,0,1,3.19-4.55A3.88,3.88,0,0,1,169.16,53.8Z"/><path class="cls-3" d="M45,61.2c1.12.12,2.23.21,3.34.38a4.41,4.41,0,0,1,4,3.64c.44,2.07.71,4.18,1,6.27a3.79,3.79,0,0,0,1.6,2.83c1.24.84,2.47,1.7,3.73,2.5a3.91,3.91,0,0,0,3.09.53c1.77-.41,2.76.33,3.18,2.1a2.67,2.67,0,0,1,.13.73c-.12,2.84,1.47,4.36,4,4.89,3.37.7,6,2.58,8.46,4.79a26,26,0,0,0,4,2.46,8.34,8.34,0,0,1,1.78,1.1,1.74,1.74,0,0,1,.43,1.51,1.62,1.62,0,0,1-1.45.51c-2.78-.68-5.54-1.48-8.31-2.22-3.69-1-7.34-2.14-11.08-2.9-3.93-.8-7.77.31-11.54,1.38-3,.84-5.88,1.79-8.8,2.77a14.93,14.93,0,0,0-2.56,1.28,4.67,4.67,0,0,1-4.66.24,28,28,0,0,1-4.84-3.41,3.79,3.79,0,0,0-3.06-1.3,6.49,6.49,0,0,1-6.46-2.66A2.68,2.68,0,0,0,19.4,88a17.33,17.33,0,0,1-2.53-.4,6.71,6.71,0,0,0-7.49,1.49,6.72,6.72,0,0,1-1.06.87,6.82,6.82,0,0,1-1.19.46,5.1,5.1,0,0,1-.34-1.27,8.44,8.44,0,0,1,3.38-6.69,31.07,31.07,0,0,1,11.77-5.52,4,4,0,0,1,2.31.2,12.27,12.27,0,0,0,9.5-.09c3-1.3,5-.33,6.94,1.81a3.33,3.33,0,0,0,4.75.42c1-.72,1-1.27-.08-1.85-1.24-.67-2.57-1.17-3.83-1.81-3-1.53-5.32-3.7-6-7.17A5,5,0,0,1,38,62.92,12.86,12.86,0,0,1,45,61.2Z"/><path class="cls-3" d="M230.59,82.68c1.17.63,2.47,1,3.25,1.83a4.81,4.81,0,0,0,4.28,1.41,47.22,47.22,0,0,1,12.67.56,7.93,7.93,0,0,1,4.88,2.76,5,5,0,0,0,5.12,1.85,14.15,14.15,0,0,1,14,5,17.42,17.42,0,0,1,2.77,4.12,161.67,161.67,0,0,0,9.92,19,2.54,2.54,0,0,1,.06,1.94,1.63,1.63,0,0,1-2,.91,3.7,3.7,0,0,1-1.3-.38c-1.1-.68-2.12-1.46-3.22-2.13a78.72,78.72,0,0,0-7.49-4.43,9.48,9.48,0,0,0-4.37-.47c-2.31.13-3.13-.14-3.78-2.29-1.24-4.12-4.58-5.38-8.23-6a7.06,7.06,0,0,1-4.48-2.06,5.1,5.1,0,0,0-2.55-1.41,216,216,0,0,0-23.3-4.13c-4.43-.59-8.8.17-13.19,0a16.44,16.44,0,0,1-3.57-.43c-1.34-.33-1.6-1.48-.49-2.29,1.72-1.26,3.39-2.76,5.66-3a9.59,9.59,0,0,0,6.29-3.43,65.85,65.85,0,0,1,5.75-5.32A17,17,0,0,1,230.59,82.68Z"/><path class="cls-3" d="M173.61,43.62a12.06,12.06,0,0,0,.3,2c.56,1.9.09,3.25-1.72,4.14A21.31,21.31,0,0,1,168.68,51a5.29,5.29,0,0,0-3.43,2.67,4.77,4.77,0,0,1-2.8,2.35,2.41,2.41,0,0,1-3-.92,4.85,4.85,0,0,1-.82-4.5,4.31,4.31,0,0,0-.65-4.47c-2.23-2.77-2.7-6-2.63-9.38a84,84,0,0,0-.25-8.84,10.74,10.74,0,0,1,2.17-7.73c1.52-2,3.23-3.92,4.7-6a19.81,19.81,0,0,0,2.22-4.13c1-2.47,2.64-3.69,5.23-3.05a23,23,0,0,0,8.9,0,11.28,11.28,0,0,1,3.57.15,1.4,1.4,0,0,1,.95,2.37A6.09,6.09,0,0,1,181,11.29c-2.49,1.49-5,3-7.59,4.31-4.87,2.53-5.75,6.72-5.11,11.64a13.6,13.6,0,0,0,2.07,6.33,3.34,3.34,0,0,1,.53,1.77,5.86,5.86,0,0,0,1.53,4A5,5,0,0,1,173.61,43.62Z"/><path class="cls-3" d="M135.81,78.41c3.56.62,7.1,1.31,10.67,1.83,2.54.38,5.12.53,7.68.78.86.09,1.74.15,2.59.31,2.73.52,4.62,1.94,5.27,4.8a33.31,33.31,0,0,1-.12,15.19,4.06,4.06,0,0,1-2.46,3,3.62,3.62,0,0,0-2.21,2.68c-1,4.29-3.33,5.76-7.68,4.85-1.42-.29-2.84-.58-4.28-.75a3.63,3.63,0,0,1-3.11-2.31,11.22,11.22,0,0,1-1-5.84c.13-1.37.57-1.8,2-1.84a1.42,1.42,0,0,0,1.5-1.21,17,17,0,0,0,.28-2.47,4.19,4.19,0,0,1,2.16-3.81c1.69-1,3.34-2,4.94-3.15.78-.54,1.8-1.07,1.25-2.38-.46-1.09-1.29-1.49-2.79-1.27a3.48,3.48,0,0,0-.73.13c-2.84,1.18-5.47.56-8-.94a10.83,10.83,0,0,0-8-1.48,4.83,4.83,0,0,1-1.73-.08c-1.67-.27-2.3-.84-2.4-2.06a3.1,3.1,0,0,1,2-3.24,3.58,3.58,0,0,1,1-.25c1-.08,2.08-.11,3.12-.16Z"/><path class="cls-3" d="M83.63,20.59c5,.43,9.93.88,14.9,1.27a8.77,8.77,0,0,1,5.82,2.83,56.77,56.77,0,0,1,5.19,6.65,6.93,6.93,0,0,1,.9,2.95,2.71,2.71,0,0,1-1.28,3,3.71,3.71,0,0,1-2.77-.36c-2.4-1.23-4.72-2.63-7-4A21.64,21.64,0,0,0,87,29.61a23,23,0,0,0-8.28,2.13,49.29,49.29,0,0,1-11.17,3.44c-2.28.4-3.16-.33-3.35-2.62a7.32,7.32,0,0,1,2.83-6.48C71.83,22.07,77.43,20.48,83.63,20.59Z"/><path class="cls-3" d="M238.94,60.43,249.57,63c1,.25,2,.5,3,.78a11,11,0,0,0,6.85-.17,24.18,24.18,0,0,1,4.13-.92,3.33,3.33,0,0,1,3.65,1.58,1.09,1.09,0,0,1-.25,1.52A7.78,7.78,0,0,1,261.71,68c-2.22.1-4.34.3-6.2,1.84-.7.58-2,.51-3,.66-3.13.45-6.13,1.13-8.28,3.78a2.25,2.25,0,0,1-1.44.87c-2.51.07-4.22,1.62-6,3.09-1,.83-1.82,1.83-2.71,2.75-.66.69-1.37,1.32-2.38.76-.74-.4-.91-1.75-.37-2.72a4.45,4.45,0,0,1,.82-1.1c1.52-1.43,1.48-3.18,1-5-.41-1.48-1-2.92-1.45-4.38-1.55-4.87,1.32-8.07,6.47-7.91a6.2,6.2,0,0,1,.62.06Z"/><path class="cls-3" d="M88.65,92.82c3.35.86,6.72,1.48,9.91,2.63,4.88,1.75,9.67,3.79,14.44,5.83a34.51,34.51,0,0,1,9.52,6.1,38.18,38.18,0,0,0,3.41,2.28,34.2,34.2,0,0,1,3.42,2.68,2.18,2.18,0,0,1,.48,2.84,2.26,2.26,0,0,1-2.61,1,8,8,0,0,1-1.22-.25c-6.07-2.14-12.23-4-17.41-8.13a47.59,47.59,0,0,0-14.44-8,31.29,31.29,0,0,1-5.49-2.88,3.82,3.82,0,0,1-1.3-1.32c-.31-.53-.72-1.36-.52-1.76S88,93.17,88.65,92.82Z"/><path class="cls-4" d="M103.54,91c-2.32-2.13-4.68-4.23-6.94-6.43-.68-.65-1.71-1.6-1-2.56s2-.22,2.78.37c2,1.63,3.94,3.42,5.89,5.16a5.62,5.62,0,0,0,1.64,1.2,3.35,3.35,0,0,0-.14-.74c-1.38-2.8-2.71-5.62-4.18-8.37-.89-1.68-2-3.24-3-4.89a4.93,4.93,0,0,1-.31-1.48c.52.13,1.17.1,1.53.41a22.51,22.51,0,0,1,6.19,8.49c.62,1.48,1.3,2.93,2,4.4l.49-.11a18.26,18.26,0,0,0-.17-2.46c-.45-2.24-1-4.45-1.43-6.7-.11-.66.14-1.85.57-2.05,1-.44,1.66.5,1.92,1.31a42,42,0,0,1,1,4.47,38.08,38.08,0,0,0,11.23,20.58c1,.94,1.83,2.05,2.74,3.09l-.3.4a7.06,7.06,0,0,1-1.23-.25,3,3,0,0,1-1.05-.66c-3.81-4.05-9-5.53-13.92-7.54-2.46-1-4.9-2.06-7.32-3.15A4.16,4.16,0,0,1,99,92.27a1.84,1.84,0,0,1-.38-1.54,1.68,1.68,0,0,1,1.46-.56,30.87,30.87,0,0,1,3.35.93l.49.26.28.21.48.27.22.06-.15-.12-.48-.28-.27-.22Z"/><path class="cls-5" d="M113.5,84.63c0-2.16.86-3.25,2.57-3.52a3.21,3.21,0,0,1,3.59,2.44,61.44,61.44,0,0,1,1.26,6.6,16.87,16.87,0,0,0,2.85,7.37,38.23,38.23,0,0,0,2.59,3.66,13.87,13.87,0,0,0,2.59,2.09,4.8,4.8,0,0,0,1.5.59c3.36.93,4.92,3.2,5,6.6a7.53,7.53,0,0,0,1.51,4.28,9,9,0,0,1,1.13,2.33,2.09,2.09,0,0,1-1,2.66,2.49,2.49,0,0,1-3.22-.24,6.48,6.48,0,0,1-1.54-2.77,14,14,0,0,0-4.37-7.91,7.3,7.3,0,0,1-1.73-2.28c-1.55-3.7-4.35-6.46-7-9.35-3.06-3.38-4.6-7.46-5.61-11.8A5.09,5.09,0,0,1,113.5,84.63Z"/><path class="cls-5" d="M132.85,91.34a7.07,7.07,0,0,0,2,5.2,8.06,8.06,0,0,1,1.67,2.71c.52,1.59-.38,2.63-2,2.55a7.89,7.89,0,0,1-5.27-2.52c-.71-.7-1.38-1.44-2-2.19a6.66,6.66,0,0,1-1.65-6.36,4,4,0,0,1,4.3-3.07C132,87.81,133,89,132.85,91.34Z"/><path class="cls-4" d="M147.12,54.71a10.7,10.7,0,0,1,.47-2.87c.26-.59,1.12-.93,1.71-1.38a10.73,10.73,0,0,1,1.06,1.68,2.75,2.75,0,0,1,0,1.48,5.11,5.11,0,0,0,1.42,4.81,12,12,0,0,1,2.88,8.9c0,.93,0,2.09-1.12,2.4a2.36,2.36,0,0,1-2.5-1.31,24.79,24.79,0,0,1-3.31-8.94C147.41,57.94,147.32,56.35,147.12,54.71Z"/><path class="cls-4" d="M155.44,76.07c0,1.62-.56,2.64-1.68,3a1.69,1.69,0,0,1-2.4-1.74c0-.72,0-1.18-.89-1.31-1.79-.27-2.49-1.18-2.25-2.74A3,3,0,0,1,151.41,71C153.55,71.18,155.43,73.57,155.44,76.07Z"/><path class="cls-4" d="M126.74,69.39c.09-.15.27-.92.63-1a1.68,1.68,0,0,1,1.43.66,64.22,64.22,0,0,1,3,5.66,1.68,1.68,0,0,1-.79,2.26c-.89.45-1.58-.19-2.13-.85A13.42,13.42,0,0,1,126.74,69.39Z"/><path class="cls-4" d="M123.34,66.73a5.76,5.76,0,0,1-.29,1.14c-.44,1-1.38,1.24-2.08.45a33.93,33.93,0,0,1-2.91-3.73,2.83,2.83,0,0,1-.31-1.78,1.27,1.27,0,0,1,1.68-1.19C120.93,62,123.33,65,123.34,66.73Z"/><path class="cls-6" d="M160.27,75a29.85,29.85,0,0,1-.32,3.19c-.1.53-.56,1.44-.79,1.41a3.27,3.27,0,0,1-1.91-.84,2.41,2.41,0,0,1-.5-1.73,36.65,36.65,0,0,1,.8-4.89,1.87,1.87,0,0,1,1.28-1.06c.3,0,.94.63,1.06,1.08A20.09,20.09,0,0,1,160.27,75Z"/><path class="cls-4" d="M124.22,87.07a2.35,2.35,0,0,1-2.2-1.58,2,2,0,0,1,1.26-2.44,10,10,0,0,1,2.85-1.1c1.48-.29,2.3.65,2.06,2.11A3.88,3.88,0,0,1,124.22,87.07Z"/><path class="cls-6" d="M147.73,68.05a3.07,3.07,0,0,1,0,.86c-.18.6-.44,1.18-.67,1.77-.58-.31-1.42-.49-1.7-1a5.93,5.93,0,0,1-.75-2.78,12.37,12.37,0,0,1,.71-3.25c.1-.33.53-.77.81-.77s.71.45.8.77c.39,1.43.67,2.89,1,4.33Z"/><path class="cls-6" d="M143.09,75.63a16.47,16.47,0,0,1-.61,2.33c-.3.72-.87.77-1.28.05-.71-1.26-1.42-2.52-2-3.83a1.83,1.83,0,0,1,.83-2.44,1.76,1.76,0,0,1,2.34,1A21.29,21.29,0,0,1,143.09,75.63Z"/><path class="cls-4" d="M93.4,74.81a4.48,4.48,0,0,1,3.85,2.88,1.3,1.3,0,0,1-1.31,1.86,4.56,4.56,0,0,1-4.11-3.23C91.63,75.36,92.23,74.78,93.4,74.81Z"/><path class="cls-4" d="M138.37,71.77,137.17,74c-.59-.56-1.41-1-1.74-1.7a12.2,12.2,0,0,1-.92-3.42,1.48,1.48,0,0,1,.75-1.24,1.65,1.65,0,0,1,1.5.43A34,34,0,0,1,138.37,71.77Z"/><path class="cls-6" d="M146.78,74.94c-.31,1-.61,2.12-1,3.2-.28.73-.8.63-1.25.12a1.42,1.42,0,0,1-.39-.77,37,37,0,0,1-.14-4.21,1.56,1.56,0,0,1,1-1.16,1.84,1.84,0,0,1,1.3.87A6.92,6.92,0,0,1,146.78,74.94Z"/><path class="cls-4" d="M88.72,79.21c.08-.14.24-.72.59-.87a1.6,1.6,0,0,1,1.36.17,8.24,8.24,0,0,1,1.91,1.91,1.7,1.7,0,0,1,0,1.58,1.84,1.84,0,0,1-1.5.47C89.54,82.24,88.69,81.09,88.72,79.21Z"/><path class="cls-6" d="M158,61.15a11.94,11.94,0,0,1,.31,7c-.21.77-.9.48-1.05-.05a15.57,15.57,0,0,1-.71-4,12,12,0,0,1,.87-3.09Z"/><path class="cls-6" d="M133,66.54c-.27.31-.7,1.18-1.37,1.44-1,.4-1.38-.57-1.66-1.37a11.76,11.76,0,0,1-.65-2.12,1.22,1.22,0,0,1,.58-1C131.13,63.12,132.94,64.65,133,66.54Z"/><path class="cls-1" d="M104.68,91.84l-.48-.27.07-.07.48.28Z"/><path class="cls-1" d="M103.54,91l.46.31-.09.08-.48-.26Z"/><path class="cls-1" d="M104.2,91.57l-.28-.21.08-.08.27.22Z"/><path class="cls-1" d="M104.75,91.78l.15.12-.22-.06Z"/></g></g></svg>